<!DOCTYPE svg PUBLIC "-//W3C//DTD SVG 1.1//EN" "http://www.w3.org/Graphics/SVG/1.1/DTD/svg11.dtd">
<svg xmlns="http://www.w3.org/2000/svg" xmlns:xlink="http://www.w3.org/1999/xlink" version="1.1" width="1152px" height="341px" viewBox="-0.5 -0.5 1152 341"><defs><clipPath id="mx-clip-4-131-152-30-0"><rect x="4" y="131" width="152" height="30"/></clipPath><clipPath id="mx-clip-4-161-152-30-0"><rect x="4" y="161" width="152" height="30"/></clipPath><clipPath id="mx-clip-4-191-152-30-0"><rect x="4" y="191" width="152" height="30"/></clipPath><clipPath id="mx-clip-504-101-192-30-0"><rect x="504" y="101" width="192" height="30"/></clipPath><clipPath id="mx-clip-504-131-192-30-0"><rect x="504" y="131" width="192" height="30"/></clipPath><clipPath id="mx-clip-504-161-192-30-0"><rect x="504" y="161" width="192" height="30"/></clipPath><clipPath id="mx-clip-504-191-192-30-0"><rect x="504" y="191" width="192" height="30"/></clipPath><clipPath id="mx-clip-504-221-192-30-0"><rect x="504" y="221" width="192" height="30"/></clipPath><clipPath id="mx-clip-504-251-192-30-0"><rect x="504" y="251" width="192" height="30"/></clipPath><clipPath id="mx-clip-504-281-192-30-0"><rect x="504" y="281" width="192" height="30"/></clipPath><clipPath id="mx-clip-774-161-152-30-0"><rect x="774" y="161" width="152" height="30"/></clipPath><clipPath id="mx-clip-774-191-152-30-0"><rect x="774" y="191" width="152" height="30"/></clipPath><clipPath id="mx-clip-774-221-152-30-0"><rect x="774" y="221" width="152" height="30"/></clipPath><clipPath id="mx-clip-774-251-152-30-0"><rect x="774" y="251" width="152" height="30"/></clipPath><clipPath id="mx-clip-994-241-152-30-0"><rect x="994" y="241" width="152" height="30"/></clipPath><clipPath id="mx-clip-994-271-152-30-0"><rect x="994" y="271" width="152" height="30"/></clipPath><clipPath id="mx-clip-274-31-152-30-0"><rect x="274" y="31" width="152" height="30"/></clipPath><clipPath id="mx-clip-274-61-152-30-0"><rect x="274" y="61" width="152" height="30"/></clipPath><clipPath id="mx-clip-274-91-152-30-0"><rect x="274" y="91" width="152" height="30"/></clipPath><clipPath id="mx-clip-274-191-152-30-0"><rect x="274" y="191" width="152" height="30"/></clipPath><clipPath id="mx-clip-274-221-152-30-0"><rect x="274" y="221" width="152" height="30"/></clipPath><clipPath id="mx-clip-274-251-152-30-0"><rect x="274" y="251" width="152" height="30"/></clipPath><clipPath id="mx-clip-274-281-152-30-0"><rect x="274" y="281" width="152" height="30"/></clipPath><clipPath id="mx-clip-274-311-152-30-0"><rect x="274" y="311" width="152" height="30"/></clipPath></defs><g><path d="M 0 126 L 0 100 L 160 100 L 160 126" fill="rgb(255, 255, 255)" stroke="rgb(0, 0, 0)" stroke-miterlimit="10" pointer-events="all"/><path d="M 0 126 L 0 216 L 160 216 L 160 126" fill="none" stroke="rgb(0, 0, 0)" stroke-miterlimit="10" pointer-events="none"/><path d="M 0 126 L 160 126" fill="none" stroke="rgb(0, 0, 0)" stroke-miterlimit="10" pointer-events="none"/><g fill="rgb(0, 0, 0)" font-family="Helvetica" pointer-events="none" text-anchor="middle" font-size="14px"><text x="79.5" y="118.5">User</text></g><g fill="rgb(0, 0, 0)" font-family="Helvetica" pointer-events="none" clip-path="url(#mx-clip-4-131-152-30-0)" font-size="12px"><text x="5.5" y="143.5">id: number</text></g><g fill="rgb(0, 0, 0)" font-family="Helvetica" pointer-events="none" clip-path="url(#mx-clip-4-161-152-30-0)" font-size="12px"><text x="5.5" y="173.5">is_admin: boolean</text></g><g fill="rgb(0, 0, 0)" font-family="Helvetica" pointer-events="none" clip-path="url(#mx-clip-4-191-152-30-0)" font-size="12px"><text x="5.5" y="203.5">google_id :string</text></g><path d="M 500 96 L 500 70 L 700 70 L 700 96" fill="rgb(255, 255, 255)" stroke="rgb(0, 0, 0)" stroke-miterlimit="10" pointer-events="none"/><path d="M 500 96 L 500 306 L 700 306 L 700 96" fill="none" stroke="rgb(0, 0, 0)" stroke-miterlimit="10" pointer-events="none"/><path d="M 500 96 L 700 96" fill="none" stroke="rgb(0, 0, 0)" stroke-miterlimit="10" pointer-events="none"/><g fill="rgb(0, 0, 0)" font-family="Helvetica" pointer-events="none" text-anchor="middle" font-size="14px"><text x="599.5" y="88.5">Room</text></g><g fill="rgb(0, 0, 0)" font-family="Helvetica" pointer-events="none" clip-path="url(#mx-clip-504-101-192-30-0)" font-size="12px"><text x="505.5" y="113.5">id: number</text></g><g fill="rgb(0, 0, 0)" font-family="Helvetica" pointer-events="none" clip-path="url(#mx-clip-504-131-192-30-0)" font-size="12px"><text x="505.5" y="143.5">owner_user_id: number</text></g><g fill="rgb(0, 0, 0)" font-family="Helvetica" pointer-events="none" clip-path="url(#mx-clip-504-161-192-30-0)" font-size="12px"><text x="505.5" y="173.5">display_id: string</text></g><g fill="rgb(0, 0, 0)" font-family="Helvetica" pointer-events="none" clip-path="url(#mx-clip-504-191-192-30-0)" font-size="12px"><text x="505.5" y="203.5">name: string</text></g><g fill="rgb(0, 0, 0)" font-family="Helvetica" pointer-events="none" clip-path="url(#mx-clip-504-221-192-30-0)" font-size="12px"><text x="505.5" y="233.5">description: string</text></g><g fill="rgb(0, 0, 0)" font-family="Helvetica" pointer-events="none" clip-path="url(#mx-clip-504-251-192-30-0)" font-size="12px"><text x="505.5" y="263.5">type: string (applemusic or spotify)</text></g><g fill="rgb(0, 0, 0)" font-family="Helvetica" pointer-events="none" clip-path="url(#mx-clip-504-281-192-30-0)" font-size="12px"><text x="505.5" y="293.5">playlist_id: string</text></g><path d="M 770 156 L 770 130 L 930 130 L 930 156" fill="rgb(255, 255, 255)" stroke="rgb(0, 0, 0)" stroke-miterlimit="10" pointer-events="none"/><path d="M 770 156 L 770 276 L 930 276 L 930 156" fill="none" stroke="rgb(0, 0, 0)" stroke-miterlimit="10" pointer-events="none"/><path d="M 770 156 L 930 156" fill="none" stroke="rgb(0, 0, 0)" stroke-miterlimit="10" pointer-events="none"/><g fill="rgb(0, 0, 0)" font-family="Helvetica" pointer-events="none" text-anchor="middle" font-size="14px"><text x="849.5" y="148.5">Letter</text></g><g fill="rgb(0, 0, 0)" font-family="Helvetica" pointer-events="none" clip-path="url(#mx-clip-774-161-152-30-0)" font-size="12px"><text x="775.5" y="173.5">id: number</text></g><g fill="rgb(0, 0, 0)" font-family="Helvetica" pointer-events="none" clip-path="url(#mx-clip-774-191-152-30-0)" font-size="12px"><text x="775.5" y="203.5">room_id: string</text></g><g fill="rgb(0, 0, 0)" font-family="Helvetica" pointer-events="none" clip-path="url(#mx-clip-774-221-152-30-0)" font-size="12px"><text x="775.5" y="233.5">radio_name: string</text></g><g fill="rgb(0, 0, 0)" font-family="Helvetica" pointer-events="none" clip-path="url(#mx-clip-774-251-152-30-0)" font-size="12px"><text x="775.5" y="263.5">message: text</text></g><path d="M 700 111 L 730 111 L 740 201 L 770 201" fill="none" stroke="rgb(0, 0, 0)" stroke-miterlimit="10" pointer-events="none"/><path d="M 762 205 L 762 197 M 770 197 L 762 201 L 770 205" fill="none" stroke="rgb(0, 0, 0)" stroke-miterlimit="10" pointer-events="none"/><path d="M 990 236 L 990 210 L 1150 210 L 1150 236" fill="rgb(255, 255, 255)" stroke="rgb(0, 0, 0)" stroke-miterlimit="10" pointer-events="none"/><path d="M 990 236 L 990 296 L 1150 296 L 1150 236" fill="none" stroke="rgb(0, 0, 0)" stroke-miterlimit="10" pointer-events="none"/><path d="M 990 236 L 1150 236" fill="none" stroke="rgb(0, 0, 0)" stroke-miterlimit="10" pointer-events="none"/><g fill="rgb(0, 0, 0)" font-family="Helvetica" pointer-events="none" text-anchor="middle" font-size="14px"><text x="1069.5" y="228.5">Music</text></g><g fill="rgb(0, 0, 0)" font-family="Helvetica" pointer-events="none" clip-path="url(#mx-clip-994-241-152-30-0)" font-size="12px"><text x="995.5" y="253.5">letter_id: number</text></g><g fill="rgb(0, 0, 0)" font-family="Helvetica" pointer-events="none" clip-path="url(#mx-clip-994-271-152-30-0)" font-size="12px"><text x="995.5" y="283.5">provided_music_id: string</text></g><path d="M 930 171 L 960 171 L 960 210.5 L 960 250 L 990 250" fill="none" stroke="rgb(0, 0, 0)" stroke-miterlimit="10" pointer-events="none"/><path d="M 982 254 L 982 246 M 990 246 L 982 250 L 990 254" fill="none" stroke="rgb(0, 0, 0)" stroke-miterlimit="10" pointer-events="none"/><path d="M 270 26 L 270 0 L 430 0 L 430 26" fill="rgb(255, 255, 255)" stroke="rgb(0, 0, 0)" stroke-miterlimit="10" pointer-events="none"/><path d="M 270 26 L 270 116 L 430 116 L 430 26" fill="none" stroke="rgb(0, 0, 0)" stroke-miterlimit="10" pointer-events="none"/><path d="M 270 26 L 430 26" fill="none" stroke="rgb(0, 0, 0)" stroke-miterlimit="10" pointer-events="none"/><g fill="rgb(0, 0, 0)" font-family="Helvetica" pointer-events="none" text-anchor="middle" font-size="14px"><text x="349.5" y="18.5">RoomUser</text></g><g fill="rgb(0, 0, 0)" font-family="Helvetica" pointer-events="none" clip-path="url(#mx-clip-274-31-152-30-0)" font-size="12px"><text x="275.5" y="43.5">id: number</text></g><g fill="rgb(0, 0, 0)" font-family="Helvetica" pointer-events="none" clip-path="url(#mx-clip-274-61-152-30-0)" font-size="12px"><text x="275.5" y="73.5">user_id:number</text></g><g fill="rgb(0, 0, 0)" font-family="Helvetica" pointer-events="none" clip-path="url(#mx-clip-274-91-152-30-0)" font-size="12px"><text x="275.5" y="103.5">room_id:number</text></g><path d="M 270 186 L 270 160 L 430 160 L 430 186" fill="rgb(255, 255, 255)" stroke="rgb(0, 0, 0)" stroke-miterlimit="10" pointer-events="none"/><path d="M 270 186 L 270 336 L 430 336 L 430 186" fill="none" stroke="rgb(0, 0, 0)" stroke-miterlimit="10" pointer-events="none"/><path d="M 270 186 L 430 186" fill="none" stroke="rgb(0, 0, 0)" stroke-miterlimit="10" pointer-events="none"/><g fill="rgb(0, 0, 0)" font-family="Helvetica" pointer-events="none" text-anchor="middle" font-size="14px"><text x="349.5" y="178.5">AccessToken</text></g><g fill="rgb(0, 0, 0)" font-family="Helvetica" pointer-events="none" clip-path="url(#mx-clip-274-191-152-30-0)" font-size="12px"><text x="275.5" y="203.5">id: number</text></g><g fill="rgb(0, 0, 0)" font-family="Helvetica" pointer-events="none" clip-path="url(#mx-clip-274-221-152-30-0)" font-size="12px"><text x="275.5" y="233.5">user_id: number</text></g><g fill="rgb(0, 0, 0)" font-family="Helvetica" pointer-events="none" clip-path="url(#mx-clip-274-251-152-30-0)" font-size="12px"><text x="275.5" y="263.5">provider: string</text></g><g fill="rgb(0, 0, 0)" font-family="Helvetica" pointer-events="none" clip-path="url(#mx-clip-274-281-152-30-0)" font-size="12px"><text x="275.5" y="293.5">access_token: string</text></g><g fill="rgb(0, 0, 0)" font-family="Helvetica" pointer-events="none" clip-path="url(#mx-clip-274-311-152-30-0)" font-size="12px"><text x="275.5" y="323.5">refresh_token: string</text></g><path d="M 160 141 L 190 141 L 240 71 L 270 71" fill="none" stroke="rgb(0, 0, 0)" stroke-miterlimit="10" pointer-events="none"/><path d="M 262 75 L 262 67 M 270 67 L 262 71 L 270 75" fill="none" stroke="rgb(0, 0, 0)" stroke-miterlimit="10" pointer-events="none"/><path d="M 500 111 L 470 111 L 460 101 L 430 101" fill="none" stroke="rgb(0, 0, 0)" stroke-miterlimit="10" pointer-events="none"/><path d="M 438 97 L 438 105 M 430 105 L 438 101 L 430 97" fill="none" stroke="rgb(0, 0, 0)" stroke-miterlimit="10" pointer-events="none"/><path d="M 160 141 L 190 141 L 470 141 L 500 141" fill="none" stroke="rgb(0, 0, 0)" stroke-miterlimit="10" pointer-events="none"/><path d="M 492 145 L 492 137 M 500 137 L 492 141 L 500 145" fill="none" stroke="rgb(0, 0, 0)" stroke-miterlimit="10" pointer-events="none"/><path d="M 160 141 L 190 141 L 240 231 L 270 231" fill="none" stroke="rgb(0, 0, 0)" stroke-miterlimit="10" pointer-events="none"/><path d="M 262 235 L 262 227 M 270 227 L 262 231 L 270 235" fill="none" stroke="rgb(0, 0, 0)" stroke-miterlimit="10" pointer-events="none"/></g></svg>